<svg width="766" height="766" viewBox="0 0 766 766" fill="none" xmlns="http://www.w3.org/2000/svg">
<path d="M287.055 765.426L382.228 765.223L382.425 669.668L382.622 574.112L382.81 670.053L382.998 765.995L287.44 765.792L191.881 765.59L287.055 765.426ZM254.886 574.692C269.316 574.576 292.928 574.576 307.357 574.692C321.787 574.808 309.981 574.895 281.122 574.895C252.263 574.895 240.457 574.808 254.886 574.692ZM192.455 428.002C192.275 330.864 192.336 325.55 193.606 325.562C194.56 325.57 194.671 325.735 193.992 326.178C193.239 326.656 192.996 348.321 192.84 428.619L192.644 530.454L192.455 428.002ZM383 420.59C383 316.968 382.928 311.089 381.659 310.753C380.922 310.55 381.871 310.55 383.766 310.725C387.258 311.055 467.775 317.127 535.051 322.131C555.273 323.637 572.595 325.027 573.543 325.223L575.266 325.579V427.825V530.072H479.133H383V420.59ZM200.117 325.022C200.855 324.819 202.061 324.819 202.798 325.022C203.536 325.225 202.931 325.372 201.458 325.372C199.983 325.372 199.38 325.227 200.117 325.022ZM210.075 324.255C210.813 324.052 212.019 324.052 212.756 324.255C213.494 324.457 212.889 324.605 211.416 324.605C209.941 324.605 209.338 324.46 210.075 324.255ZM220.033 323.488C220.771 323.285 221.977 323.285 222.714 323.488C223.452 323.69 222.847 323.838 221.374 323.838C219.899 323.838 219.296 323.693 220.033 323.488ZM229.225 322.72C229.963 322.518 231.169 322.518 231.906 322.72C232.644 322.923 232.039 323.071 230.566 323.071C229.091 323.071 228.488 322.926 229.225 322.72ZM239.183 321.953C239.921 321.75 241.127 321.75 241.864 321.953C242.602 322.156 241.997 322.303 240.524 322.303C239.049 322.303 238.446 322.159 239.183 321.953ZM248.375 321.186C249.113 320.983 250.319 320.983 251.056 321.186C251.794 321.389 251.189 321.536 249.716 321.536C248.241 321.536 247.638 321.392 248.375 321.186ZM258.333 320.419C259.071 320.216 260.277 320.216 261.014 320.419C261.752 320.621 261.147 320.769 259.674 320.769C258.199 320.769 257.596 320.624 258.333 320.419ZM267.525 319.651C268.263 319.449 269.469 319.449 270.206 319.651C270.944 319.854 270.339 320.002 268.866 320.002C267.391 320.002 266.788 319.857 267.525 319.651ZM277.498 318.881C278.243 318.679 279.277 318.708 279.796 318.91C280.314 319.112 279.706 319.278 278.441 319.263C277.177 319.247 276.753 319.09 277.498 318.881ZM286.675 318.117C287.413 317.915 288.619 317.915 289.356 318.117C290.094 318.32 289.489 318.467 288.016 318.467C286.541 318.467 285.938 318.323 286.675 318.117ZM295.867 317.35C296.605 317.147 297.811 317.147 298.548 317.35C299.286 317.552 298.681 317.7 297.208 317.7C295.733 317.7 295.13 317.555 295.867 317.35ZM305.825 316.582C306.563 316.38 307.769 316.38 308.506 316.582C309.244 316.785 308.639 316.933 307.166 316.933C305.691 316.933 305.088 316.788 305.825 316.582ZM315.017 315.816C315.755 315.613 316.961 315.613 317.698 315.816C318.436 316.018 317.831 316.166 316.358 316.166C314.883 316.166 314.28 316.021 315.017 315.816ZM324.975 315.048C325.713 314.846 326.919 314.846 327.656 315.048C328.394 315.251 327.789 315.399 326.316 315.399C324.841 315.399 324.238 315.254 324.975 315.048ZM334.167 314.281C334.905 314.078 336.111 314.078 336.848 314.281C337.586 314.484 336.981 314.631 335.508 314.631C334.033 314.631 333.43 314.486 334.167 314.281ZM344.125 313.514C344.863 313.311 346.069 313.311 346.806 313.514C347.544 313.716 346.939 313.864 345.466 313.864C343.991 313.864 343.388 313.719 344.125 313.514ZM353.317 312.747C354.055 312.544 355.261 312.544 355.998 312.747C356.736 312.949 356.131 313.097 354.658 313.097C353.183 313.097 352.58 312.952 353.317 312.747ZM363.275 311.979C364.013 311.777 365.219 311.777 365.956 311.979C366.694 312.182 366.09 312.33 364.616 312.33C363.141 312.33 362.538 312.185 363.275 311.979ZM372.467 311.212C373.205 311.009 374.411 311.009 375.148 311.212C375.886 311.415 375.281 311.562 373.808 311.562C372.333 311.562 371.73 311.418 372.467 311.212ZM665.271 287.243C577.22 279.204 507.839 272.927 432.79 266.211C406.88 263.892 384.044 261.786 382.042 261.529L378.404 261.063V155.1C378.404 54.8267 378.332 49.1181 377.063 48.7866C373.846 47.9471 380.742 48.352 387.505 49.4029C391.557 50.0311 473.982 61.9302 570.67 75.8427C667.358 89.7552 747.587 101.343 748.957 101.594L751.446 102.048V198.479V294.91L749.34 294.823C748.181 294.765 710.35 291.359 665.271 287.243ZM197.053 275.998C197.791 275.795 198.997 275.795 199.735 275.998C200.472 276.201 199.868 276.348 198.394 276.348C196.92 276.348 196.316 276.204 197.053 275.998ZM206.245 275.231C206.983 275.028 208.189 275.028 208.926 275.231C209.664 275.433 209.059 275.581 207.586 275.581C206.111 275.581 205.508 275.436 206.245 275.231ZM215.437 274.464C216.175 274.261 217.381 274.261 218.118 274.464C218.856 274.666 218.251 274.814 216.778 274.814C215.303 274.814 214.7 274.669 215.437 274.464ZM224.629 273.699C225.367 273.496 226.573 273.496 227.31 273.699C228.048 273.902 227.443 274.049 225.97 274.049C224.495 274.049 223.892 273.905 224.629 273.699ZM233.821 272.932C234.559 272.73 235.765 272.73 236.502 272.932C237.24 273.135 236.635 273.282 235.162 273.282C233.687 273.282 233.084 273.138 233.821 272.932ZM243.013 272.165C243.751 271.962 244.957 271.962 245.694 272.165C246.432 272.367 245.827 272.515 244.354 272.515C242.879 272.515 242.276 272.37 243.013 272.165ZM252.205 271.397C252.943 271.195 254.149 271.195 254.886 271.397C255.624 271.6 255.019 271.748 253.546 271.748C252.071 271.748 251.468 271.603 252.205 271.397ZM261.397 270.631C262.135 270.428 263.341 270.428 264.078 270.631C264.816 270.833 264.211 270.981 262.738 270.981C261.263 270.981 260.66 270.836 261.397 270.631ZM270.589 269.863C271.327 269.661 272.533 269.661 273.271 269.863C274.008 270.066 273.404 270.214 271.93 270.214C270.456 270.214 269.852 270.069 270.589 269.863ZM279.781 269.099C280.519 268.896 281.725 268.896 282.462 269.099C283.2 269.302 282.595 269.449 281.122 269.449C279.647 269.449 279.044 269.305 279.781 269.099ZM288.207 268.332C288.945 268.129 290.151 268.129 290.888 268.332C291.626 268.534 291.021 268.682 289.548 268.682C288.073 268.682 287.47 268.537 288.207 268.332ZM298.165 267.564C298.903 267.362 300.109 267.362 300.846 267.564C301.584 267.767 300.979 267.915 299.506 267.915C298.031 267.915 297.428 267.77 298.165 267.564ZM307.372 266.794C308.117 266.592 309.151 266.621 309.67 266.823C310.188 267.025 309.58 267.191 308.315 267.176C307.051 267.16 306.627 267.003 307.372 266.794ZM316.564 266.027C317.309 265.824 318.343 265.853 318.862 266.056C319.38 266.258 318.772 266.424 317.507 266.409C316.243 266.394 315.819 266.235 316.564 266.027ZM325.756 265.26C326.501 265.057 327.535 265.086 328.054 265.288C328.573 265.491 327.964 265.656 326.699 265.641C325.435 265.626 325.011 265.469 325.756 265.26ZM334.948 264.493C335.693 264.29 336.727 264.319 337.246 264.521C337.764 264.724 337.156 264.889 335.891 264.874C334.627 264.859 334.203 264.701 334.948 264.493ZM344.14 263.725C344.885 263.523 345.919 263.552 346.438 263.754C346.956 263.956 346.348 264.122 345.083 264.107C343.819 264.091 343.395 263.934 344.14 263.725ZM353.332 262.959C354.077 262.756 355.111 262.785 355.63 262.987C356.148 263.189 355.54 263.354 354.275 263.34C353.011 263.324 352.587 263.167 353.332 262.959ZM361.743 262.194C362.481 261.991 363.687 261.991 364.424 262.194C365.162 262.397 364.557 262.544 363.084 262.544C361.609 262.544 361.006 262.399 361.743 262.194ZM370.935 261.427C371.673 261.224 372.879 261.224 373.616 261.427C374.354 261.63 373.75 261.777 372.276 261.777C370.801 261.777 370.198 261.633 370.935 261.427ZM196.718 76.0596C197.271 75.828 197.932 75.8569 198.186 76.1175C198.441 76.378 197.989 76.5518 197.181 76.5199C196.289 76.491 196.107 76.2912 196.718 76.0596ZM202.08 75.2923C202.633 75.0606 203.294 75.0896 203.548 75.3501C203.803 75.6107 203.351 75.7844 202.543 75.7526C201.651 75.7236 201.469 75.5239 202.08 75.2923ZM206.676 74.5254C207.229 74.2937 207.89 74.3227 208.144 74.5832C208.399 74.8438 207.948 75.0204 207.139 74.9857C206.247 74.9567 206.065 74.757 206.676 74.5254ZM212.038 73.758C212.591 73.5264 213.252 73.5553 213.506 73.8159C213.761 74.0765 213.309 74.2502 212.501 74.2183C211.609 74.1894 211.427 73.9896 212.038 73.758ZM216.634 72.9907C217.187 72.7591 217.848 72.788 218.102 73.0486C218.357 73.3091 217.905 73.4857 217.097 73.451C216.205 73.422 216.023 73.2223 216.634 72.9907ZM221.996 72.2238C222.549 71.9922 223.21 72.0211 223.464 72.2817C223.719 72.5422 223.268 72.7159 222.459 72.6841C221.567 72.6551 221.385 72.4554 221.996 72.2238ZM226.592 71.4564C227.145 71.2248 227.806 71.2538 228.06 71.5143C228.315 71.7749 227.864 71.9486 227.055 71.9168C226.163 71.8878 225.981 71.6881 226.592 71.4564ZM231.954 70.6891C232.507 70.4575 233.168 70.4864 233.422 70.747C233.677 71.0075 233.225 71.1842 232.417 71.1494C231.525 71.1205 231.343 70.9207 231.954 70.6891ZM236.55 69.9218C237.103 69.6902 237.764 69.7195 238.018 69.9801C238.273 70.2406 237.822 70.4168 237.013 70.3821C236.121 70.3531 235.939 70.1534 236.55 69.9218ZM241.912 69.1549C242.465 68.9233 243.126 68.9522 243.38 69.2128C243.635 69.4733 243.184 69.6499 242.375 69.6152C241.483 69.5862 241.301 69.3865 241.912 69.1549ZM246.46 68.4048C246.987 68.2021 247.849 68.2021 248.376 68.4048C248.902 68.6074 248.471 68.79 247.418 68.79C246.365 68.79 245.934 68.6161 246.46 68.4048ZM251.87 67.6233C252.423 67.3917 253.084 67.4206 253.338 67.6812C253.593 67.9417 253.141 68.1155 252.333 68.0836C251.441 68.0547 251.259 67.8549 251.87 67.6233ZM256.418 66.8736C256.945 66.671 257.807 66.671 258.333 66.8736C258.86 67.0763 258.429 67.2615 257.376 67.2615C256.323 67.2615 255.892 67.0879 256.418 66.8736ZM261.828 66.0917C262.381 65.8601 263.042 65.889 263.296 66.1496C263.551 66.4101 263.1 66.5868 262.291 66.552C261.399 66.5231 261.217 66.3233 261.828 66.0917ZM267.19 65.3244C267.743 65.0928 268.404 65.1217 268.658 65.3822C268.913 65.6428 268.461 65.8194 267.653 65.7847C266.761 65.7557 266.579 65.556 267.19 65.3244ZM271.786 64.5575C272.339 64.3259 273 64.3548 273.254 64.6154C273.509 64.8759 273.058 65.0525 272.249 65.0178C271.357 64.9888 271.175 64.7891 271.786 64.5575ZM277.148 63.7901C277.701 63.5585 278.362 63.5875 278.616 63.848C278.871 64.1086 278.42 64.2852 277.611 64.2505C276.719 64.2215 276.537 64.0218 277.148 63.7901ZM281.744 63.0228C282.297 62.7912 282.958 62.8201 283.212 63.0807C283.467 63.3412 283.015 63.515 282.207 63.4831C281.315 63.4542 281.133 63.2544 281.744 63.0228ZM287.106 62.2559C287.659 62.0243 288.32 62.0532 288.574 62.3138C288.829 62.5743 288.377 62.7481 287.569 62.7162C286.677 62.6873 286.495 62.4875 287.106 62.2559ZM291.702 61.4886C292.255 61.257 292.916 61.2859 293.17 61.5464C293.425 61.807 292.974 61.9836 292.165 61.9489C291.273 61.9199 291.091 61.7202 291.702 61.4886ZM296.25 60.7385C296.777 60.5358 297.639 60.5358 298.166 60.7385C298.692 60.9411 298.261 61.1268 297.208 61.1268C296.155 61.1268 295.724 60.9527 296.25 60.7385ZM301.66 59.957C302.213 59.7254 302.874 59.7543 303.128 60.0149C303.383 60.2754 302.932 60.452 302.123 60.4173C301.231 60.3884 301.049 60.1886 301.66 59.957ZM307.022 59.1897C307.575 58.958 308.236 58.987 308.49 59.2475C308.745 59.5081 308.294 59.6847 307.485 59.65C306.593 59.621 306.411 59.4213 307.022 59.1897ZM311.618 58.4228C312.171 58.1912 312.832 58.2201 313.086 58.4806C313.341 58.7412 312.89 58.9149 312.081 58.8831C311.189 58.8541 311.007 58.6544 311.618 58.4228ZM316.98 57.6554C317.533 57.4238 318.194 57.4527 318.448 57.7133C318.703 57.9739 318.251 58.1476 317.443 58.1157C316.551 58.0868 316.369 57.887 316.98 57.6554ZM321.576 56.8881C322.129 56.6565 322.79 56.6854 323.044 56.946C323.299 57.2065 322.848 57.3831 322.039 57.3484C321.147 57.3194 320.965 57.1197 321.576 56.8881ZM326.938 56.1207C327.491 55.8891 328.152 55.9185 328.406 56.1791C328.661 56.4396 328.21 56.6158 327.401 56.5811C326.509 56.5521 326.327 56.3524 326.938 56.1207ZM331.534 55.3539C332.087 55.1222 332.748 55.1512 333.002 55.4117C333.257 55.6723 332.805 55.8489 331.997 55.8142C331.105 55.7852 330.923 55.5855 331.534 55.3539ZM336.896 54.5865C337.449 54.3549 338.11 54.3838 338.364 54.6444C338.619 54.9049 338.168 55.0816 337.359 55.0468C336.467 55.0179 336.285 54.8181 336.896 54.5865ZM341.492 53.8192C342.045 53.5876 342.706 53.6165 342.96 53.8771C343.215 54.1376 342.764 54.3113 341.955 54.2795C341.063 54.2505 340.881 54.0508 341.492 53.8192ZM346.854 53.0523C347.407 52.8207 348.068 52.8496 348.322 53.1102C348.577 53.3707 348.126 53.5444 347.317 53.5126C346.425 53.4836 346.243 53.2839 346.854 53.0523ZM351.45 52.2849C352.003 52.0533 352.664 52.0823 352.918 52.3428C353.173 52.6034 352.722 52.78 351.913 52.7453C351.021 52.7163 350.839 52.5166 351.45 52.2849ZM356.812 51.5176C357.365 51.286 358.026 51.3149 358.28 51.5755C358.535 51.836 358.084 52.0127 357.275 51.9779C356.383 51.949 356.201 51.7492 356.812 51.5176ZM361.408 50.7507C361.961 50.5191 362.622 50.548 362.876 50.8086C363.131 51.0691 362.68 51.2458 361.871 51.211C360.979 51.1821 360.797 50.9823 361.408 50.7507ZM366.77 49.986C367.323 49.7544 367.984 49.7833 368.238 50.0439C368.493 50.3045 368.041 50.4811 367.233 50.4463C366.341 50.4174 366.159 50.2176 366.77 49.986ZM371.366 49.2191C371.919 48.9875 372.58 49.0164 372.834 49.277C373.089 49.5376 372.638 49.7113 371.829 49.6794C370.937 49.6505 370.755 49.4507 371.366 49.2191Z" fill="#8C0000"/>
<path d="M192.266 670.25V575.266H250.356C282.306 575.266 325.049 575.034 345.34 574.759L382.234 574.253V669.745V765.237H287.25H192.266V670.25ZM193.032 428.208V326.345L194.756 325.992C196.218 325.691 380.78 310.927 382.426 310.978C382.742 310.988 383 360.288 383 420.534V530.072H288.016H193.032L193.032 428.208ZM192.266 177.015V77.3949L193.99 76.9982C196.786 76.3555 375.693 49.0237 377.11 49.0237C378.319 49.0237 378.404 56.024 378.404 155.115V261.206H376.648C374.526 261.206 202.002 275.528 196.287 276.178L192.266 276.636L192.266 177.015Z" fill="#540000"/>
</svg>
